<?xml version="1.0" encoding="UTF-8"?>
<svg id="Layer_2" data-name="Layer 2" xmlns="http://www.w3.org/2000/svg" viewBox="0 0 1497.68 1548.71">
  <g id="Layer_1-2" data-name="Layer 1">
    <g>
      <circle cx="555.6" cy="145.9" r="145.9" style="fill: #ff3829; stroke-width: 0px;"/>
      <rect x="458.5" y="766.8" width="194.2" height="773.6" style="fill: #b2e044; stroke-width: 0px;"/>
      <rect x="458.5" y="345.4" width="194.2" height="421.4" style="fill: #ff3829; stroke-width: 0px;"/>
      <path d="m787.3,23.9c110.3,75.5,181.9,194.9,181.9,329.8,0,215.9-182.7,393-415.7,411.7,17.9,1.2,36,1.9,54.3,1.9,304.5,0,551.4-171.1,551.4-382.1,0-167.5-155.6-309.7-371.9-361.3Z" style="fill: #ff8b00; stroke-width: 0px;"/>
      <path d="m371.9,1540.4c-110.3-78.5-181.9-202.7-181.9-343.1,0-224.6,182.7-408.7,415.7-428.2-17.9-1.3-36-1.9-54.3-1.9C246.9,767.2,0,945.1,0,1164.6c0,174.2,155.6,322.1,371.9,375.8Z" style="fill: #25990d; stroke-width: 0px;"/>
      <path d="m1120.2,1043.3s-408.7,226.8-277.1,364.1,277.1-47.2,277.1-47.2c0,0,54.8,155.8,123.9,60,69.2-95.8,181.2-475.9-267.7-667.6,394.2-22.4,812.9,466.4,242.1,787.8-143.3,42.7-132-93.1-132-93.1,0,0-434.8,186.9-378.7-107,83.2-232.3,412.4-297,412.4-297Z" style="fill: #4169e1; stroke-width: 0px;"/>
    </g>
  </g>
</svg>